<svg id="Capa_1" enable-background="new 0 0 512 512" height="512" viewBox="0 0 512 512" width="512" xmlns="http://www.w3.org/2000/svg"><g><g><g fill="#6bd9e7"><path d="m292.614 88.239-32.284 73.239c-1.924 3.333-6.736 3.333-8.66 0l-42.284-73.239c-20.718-35.884 5.179-80.739 46.614-80.739 41.435 0 57.332 44.855 36.614 80.739z"/><path d="m209.385 423.762 42.284-73.239c1.924-3.333 6.736-3.333 8.66 0l32.284 73.239c20.719 35.883 4.822 80.738-36.613 80.738-41.435 0-67.332-44.855-46.615-80.738z"/><path d="m491.216 256c-11.688-54.881-55.135-51.86-55.14-51.859-4.167 1.195-8.297 2.925-12.314 5.245l-73.239 42.284c-3.333 1.924-3.333 6.736 0 8.66l73.239 42.284c4.017 2.319 8.148 4.05 12.314 5.245.018.001 66.827 3.018 55.14-51.859z"/></g><path d="m256 7.5c-5.11 0-9.982.685-14.561 1.948 32.551 8.981 50.217 47.332 32.054 78.791l-32.054 55.519 10.23 17.72c1.924 3.333 6.736 3.333 8.66 0l42.284-73.239c20.719-35.884-5.178-80.739-46.613-80.739z" fill="#2bd0d8"/><path d="m256 504.5c-5.11 0-9.982-.685-14.561-1.948 32.551-8.981 50.217-47.332 32.054-78.791l-32.054-55.519 10.23-17.719c1.924-3.333 6.736-3.333 8.66 0l42.284 73.239c20.719 35.883-5.178 80.738-46.613 80.738z" fill="#2bd0d8"/><path d="m88.238 209.386 73.239 42.284c3.333 1.924 3.333 6.736 0 8.66l-73.239 42.284c-35.883 20.718-80.738-5.179-80.738-46.614 0-41.435 44.855-67.332 80.738-46.614z" fill="#6bd9e7"/><path d="m436.075 204.141c21.846 6.209 39.303 26.01 39.303 51.859 0 25.849-17.458 45.65-39.303 51.859 33.052 9.475 68.425-15.063 68.425-51.859 0-36.796-35.373-61.334-68.425-51.859z" fill="#2bd0d8"/><path d="m347.195 213.219-58.672 15.721c-3.718.996-7.12-2.406-6.124-6.124l15.721-58.672c2.079-7.759 6.142-14.174 11.4-19.034 0 0 27.27-17.007 51.31 18.866 24.041 35.875-13.635 49.243-13.635 49.243z" fill="#03bed7"/><path d="m213.879 164.145 15.721 58.672c.996 3.718-2.406 7.12-6.124 6.124l-58.672-15.721c-29.794-7.983-39.773-45.226-17.962-67.037 21.811-21.811 59.054-11.832 67.037 17.962z" fill="#03bed7"/><path d="m213.879 347.855 15.721-58.672c.996-3.718-2.406-7.12-6.124-6.124l-58.672 15.721c-29.794 7.983-39.773 45.226-17.962 67.037 21.811 21.812 59.054 11.832 67.037-17.962z" fill="#03bed7"/><path d="m347.195 213.212-3.257.873c15.906-14.598 18.2-40.929 1.219-57.909-10.056-10.056-23.39-13.34-35.627-11.054 14.933-13.804 39.495-15.078 55.627 1.054 21.811 21.81 11.832 59.052-17.962 67.036z" fill="#07b2cd"/><path d="m347.195 298.781-58.672-15.721c-3.718-.996-7.12 2.406-6.124 6.124l15.721 58.672c2.079 7.759 6.142 14.174 11.4 19.034 0 0 27.27 17.007 51.31-18.866 24.041-35.875-13.635-49.243-13.635-49.243z" fill="#03bed7"/><path d="m347.195 298.789-3.257-.873c15.906 14.598 18.2 40.928 1.219 57.909-10.056 10.056-23.39 13.34-35.627 11.054 14.933 13.804 39.495 15.078 55.627-1.054 21.811-21.811 11.832-59.053-17.962-67.036z" fill="#07b2cd"/></g><g><g><path d="m400.866 111.134c-2.929-2.929-2.929-7.678 0-10.607 2.929-2.929 7.678-2.929 10.607 0 2.929 2.929 2.929 7.678 0 10.607-2.93 2.929-7.678 2.929-10.607 0z"/></g><g><path d="m100.528 411.472c-2.929-2.929-2.929-7.678 0-10.607 2.929-2.929 7.678-2.929 10.607 0 2.929 2.929 2.929 7.678 0 10.607-2.93 2.929-7.678 2.929-10.607 0z"/></g><g><path d="m111.134 111.134c-2.929 2.929-7.678 2.929-10.607 0-2.929-2.929-2.929-7.678 0-10.607 2.929-2.929 7.678-2.929 10.607 0 2.929 2.93 2.929 7.678 0 10.607z"/></g><g><path d="m411.472 411.472c-2.929 2.929-7.678 2.929-10.607 0-2.929-2.929-2.929-7.678 0-10.607 2.929-2.929 7.678-2.929 10.607 0 2.929 2.93 2.929 7.678 0 10.607z"/></g><g><path d="m261.303 261.303c-2.929 2.929-7.678 2.929-10.607 0-2.929-2.929-2.929-7.678 0-10.607 2.929-2.929 7.678-2.929 10.607 0 2.929 2.93 2.929 7.678 0 10.607z"/></g><g><path d="m256 512c-22.17 0-42.024-11.463-53.11-30.663-11.085-19.2-11.085-42.125 0-61.326l42.285-73.239c2.259-3.913 6.306-6.25 10.824-6.25 4.52 0 8.566 2.336 10.826 6.25l42.284 73.239c11.085 19.2 11.086 42.125 0 61.326-11.085 19.2-30.938 30.663-53.109 30.663zm-40.12-84.488c-8.374 14.504-8.374 31.822.001 46.326 8.373 14.503 23.371 23.162 40.119 23.162s31.746-8.659 40.119-23.163c8.374-14.504 8.374-31.822 0-46.326l-40.119-69.488z"/></g><g><path d="m61.326 317.424c-10.533 0-21.061-2.771-30.663-8.314-19.2-11.086-30.663-30.94-30.663-53.11s11.463-42.024 30.663-53.11c19.2-11.085 42.125-11.084 61.325.001l73.239 42.284c3.913 2.259 6.25 6.306 6.25 10.825s-2.337 8.566-6.251 10.826l-23.992 13.852c-3.586 2.073-8.174.843-10.245-2.745-2.071-3.587-.842-8.174 2.745-10.245l20.243-11.688-69.489-40.119c-14.503-8.373-31.821-8.374-46.325 0-14.504 8.373-23.163 23.371-23.163 40.119s8.659 31.746 23.163 40.119c14.504 8.374 31.822 8.374 46.326.001l20.939-12.089c3.587-2.071 8.174-.842 10.245 2.745s.842 8.174-2.745 10.245l-20.94 12.089c-9.598 5.542-20.132 8.314-30.662 8.314z"/></g><g><path d="m256 171.478c-.001 0-.001 0-.001 0-4.519 0-8.565-2.337-10.824-6.25l-42.285-73.24c-11.085-19.2-11.085-42.125 0-61.325 11.086-19.2 30.94-30.663 53.11-30.663 22.171 0 42.024 11.463 53.109 30.663 11.086 19.2 11.085 42.126 0 61.326l-9.554 16.549c-2.07 3.587-6.657 4.816-10.245 2.745-3.587-2.071-4.816-6.658-2.745-10.245l9.554-16.549c8.374-14.504 8.374-31.822 0-46.326-8.373-14.504-23.371-23.163-40.119-23.163s-31.746 8.659-40.119 23.163c-8.374 14.504-8.374 31.822-.001 46.325l40.12 69.49 14.221-24.63c2.069-3.588 6.659-4.817 10.245-2.745 3.587 2.071 4.816 6.658 2.745 10.245l-16.386 28.38c-2.26 3.913-6.306 6.25-10.825 6.25z"/></g><g><path d="m450.674 317.424c-10.531 0-21.063-2.772-30.662-8.314l-11.833-6.832c-3.587-2.071-4.816-6.658-2.745-10.245 2.07-3.588 6.659-4.818 10.245-2.745l11.833 6.832c14.504 8.374 31.821 8.373 46.325-.001 14.504-8.373 23.163-23.371 23.163-40.119s-8.659-31.746-23.163-40.119c-14.504-8.374-31.821-8.374-46.325 0l-69.49 40.119 29.346 16.943c3.587 2.071 4.816 6.658 2.745 10.245-2.07 3.586-6.656 4.816-10.245 2.745l-33.096-19.108c-3.913-2.259-6.25-6.306-6.25-10.825s2.337-8.566 6.25-10.825l73.239-42.284c19.199-11.085 42.126-11.085 61.325-.001 19.201 11.086 30.664 30.94 30.664 53.11s-11.463 42.024-30.663 53.11c-9.6 5.542-20.131 8.314-30.663 8.314z"/></g><g><path d="m224.827 236.622c-1.091 0-2.196-.144-3.291-.437l-58.672-15.721c-16.611-4.451-29.185-17.025-33.636-33.636s.151-33.788 12.312-45.949c12.16-12.161 29.338-16.765 45.949-12.311 16.611 4.451 29.185 17.025 33.636 33.636l15.721 58.672c1.169 4.365-.04 8.878-3.235 12.074-2.395 2.392-5.528 3.672-8.784 3.672zm-2.472-11.865h.01zm-47.328-82.84c-8.484 0-16.646 3.333-22.882 9.568-8.326 8.326-11.477 20.086-8.429 31.46 3.047 11.373 11.657 19.982 23.029 23.029l54.489 14.601-14.601-54.489c-3.047-11.372-11.656-19.982-23.029-23.029-2.853-.765-5.734-1.14-8.577-1.14z"/></g><g><path d="m174.959 385.097c-12.392 0-24.312-4.867-33.42-13.976-12.16-12.16-16.763-29.337-12.312-45.948s17.025-29.185 33.636-33.636l58.672-15.721c4.366-1.169 8.879.041 12.074 3.235 3.195 3.195 4.405 7.709 3.235 12.074l-15.721 58.672c-4.451 16.611-17.025 29.185-33.636 33.636-4.168 1.117-8.376 1.664-12.528 1.664zm46.276-93.672-54.489 14.601c-11.373 3.047-19.982 11.656-23.029 23.029s.104 23.134 8.429 31.459c8.326 8.325 20.087 11.478 31.46 8.429 11.373-3.047 19.982-11.657 23.029-23.029z"/></g><g><path d="m287.173 236.622c-3.257 0-6.389-1.279-8.782-3.672-3.195-3.195-4.405-7.709-3.235-12.074l15.722-58.672c4.451-16.611 17.025-29.185 33.636-33.636 16.612-4.454 33.788.151 45.948 12.311s16.763 29.337 12.312 45.948c-4.45 16.611-17.025 29.186-33.636 33.636l-58.672 15.721c-1.097.294-2.202.438-3.293.438zm49.8-94.705c-2.844 0-5.723.374-8.577 1.139-11.373 3.047-19.982 11.656-23.03 23.03l-14.601 54.489 54.489-14.601c11.373-3.047 19.982-11.656 23.03-23.029 3.047-11.373-.105-23.134-8.431-31.459-6.235-6.236-14.398-9.569-22.88-9.569zm-38.852 22.228h.01z"/></g><g><path d="m337.04 385.097c-4.152.001-8.357-.546-12.527-1.664-16.61-4.451-29.185-17.025-33.636-33.636l-15.722-58.672c-1.17-4.365.04-8.879 3.235-12.074 3.194-3.195 7.704-4.405 12.074-3.235l58.672 15.721c16.611 4.451 29.186 17.026 33.636 33.637 4.451 16.611-.151 33.788-12.312 45.948-9.107 9.107-21.029 13.975-33.42 13.975zm-46.275-93.672 14.601 54.489c3.048 11.374 11.657 19.982 23.03 23.03 11.373 3.05 23.133-.104 31.458-8.429 8.326-8.326 11.478-20.086 8.431-31.459-3.048-11.373-11.657-19.983-23.03-23.03z"/></g></g></g></svg>